<svg width="24" height="24" viewBox="0 0 24 24" fill="none" xmlns="http://www.w3.org/2000/svg">
<path d="M18.04 13.5499C17.62 13.9599 17.38 14.5499 17.44 15.1799C17.53 16.2599 18.52 17.0499 19.6 17.0499H21.5V18.2399C21.5 20.3099 19.81 21.9999 17.74 21.9999H6.26C4.19 21.9999 2.5 20.3099 2.5 18.2399V11.5099C2.5 9.43989 4.19 7.74988 6.26 7.74988H17.74C19.81 7.74988 21.5 9.43989 21.5 11.5099V12.9499H19.48C18.92 12.9499 18.41 13.1699 18.04 13.5499Z" stroke="white" stroke-width="1.5" stroke-linecap="round" stroke-linejoin="round"/>
<path d="M2.5 12.4099V7.83998C2.5 6.64998 3.23 5.58994 4.34 5.16994L12.28 2.16994C13.52 1.69994 14.85 2.61997 14.85 3.94997V7.74996" stroke="white" stroke-width="1.5" stroke-linecap="round" stroke-linejoin="round"/>
<path d="M22.5588 13.9702V16.0302C22.5588 16.5802 22.1188 17.0302 21.5588 17.0502H19.5988C18.5188 17.0502 17.5288 16.2602 17.4388 15.1802C17.3788 14.5502 17.6188 13.9602 18.0388 13.5502C18.4088 13.1702 18.9188 12.9502 19.4788 12.9502H21.5588C22.1188 12.9702 22.5588 13.4202 22.5588 13.9702Z" stroke="white" stroke-width="1.5" stroke-linecap="round" stroke-linejoin="round"/>
<path d="M7 12H14" stroke="white" stroke-width="1.5" stroke-linecap="round" stroke-linejoin="round"/>
</svg>
